# xmcd CD database file
#
# Track frame offsets:
#	187
#	27625
#	42202
#	55765
#	73272
#	86040
#	104707
#	122112
#	139685
#	152312
#	168522
#	182890
#	204640
#	225072
#	242870
#
# Disc length: 3414 seconds
#
# Revision: 0
# Processed by: cddbd v1.5.2PL0 Copyright (c) Steve Scherf et al.
# Submitted via: CDex 1.70beta2
#
DISCID=d00d540f
DTITLE=TEDDY WILSON - THE GREATEST JAZZ PIANO
DYEAR=1900
DGENRE=Jazz
TTITLE0=SOPHISTICATED LADY - SATIN DOLL (D. Ellington)
TTITLE1=STOMPIN' AT THE SAVOY (Goodman-Razaf-Sampson)  
TTITLE2=LULLABY OF BIRDLAND) - (G. Shearing)
TTITLE3=MOONGLOW (E, D, Lange-I. Mills-W. Hudson)
TTITLE4=MEAN TO ME (F. E. Ahlert-R. Turk)
TTITLE5=I CAN'T GET STARTED (I. Gershwin-V. Duke)
TTITLE6=I'M THRU WITH LOVE (M. Malneck-F. Livingston)
TTITLE7=CHEEK TO CHEEK (I. Berlin)
TTITLE8=MY SILENT LOVE (E. Heyman-D. Suesse)
TTITLE9=BODY AND SOUL (E. Heyman-R. Sour-F. Eyton-J. Green)
TTITLE10=SHINY STOCKINGS (F. Foster)
TTITLE11=LUSH LIFE - TAKE THE "A" TRAIN (B. Strayhorn)
TTITLE12=TEA FOR TWO (I. Caesar-V. Youmans)
TTITLE13=SOMEONE TO WATCH OVER ME (I. and G. Gershwin)
TTITLE14=AS TIME GOES BY (H. Hupfeld)
EXTD=
EXTT0=
EXTT1=
EXTT2=
EXTT3=
EXTT4=
EXTT5=
EXTT6=
EXTT7=
EXTT8=
EXTT9=
EXTT10=
EXTT11=
EXTT12=
EXTT13=
EXTT14=
PLAYORDER=
